# xmcd CD database file
#
# Track frame offsets:
#	150
#	19852
#	38155
#	55327
#	71305
#	88425
#	103777
#	119002
#	144072
#	167092
#	185457
#	202492
#
# Disc length: 2991 seconds
#
# Revision: 4
# Processed by: cddbd v1.5PL3 Copyright (c) Steve Scherf et al.
# Submitted via: CDex 1.50
#
DISCID=b10bad0c
DTITLE=Mary Chapin Carpenter - Come On Come On
DYEAR=1992
DGENRE=Country
TTITLE0=The Hard Way
TTITLE1=He Thinks He'll Keep Her
TTITLE2=Rhythm of the Blues
TTITLE3=I Feel Lucky
TTITLE4=The Bug
TTITLE5=Not Too Much to Ask
TTITLE6=Passionate Kisses
TTITLE7=Only a Dream
TTITLE8=I Am a Town
TTITLE9=Walking Through Fire
TTITLE10=I Take My Chances
TTITLE11=Come On Come On
EXTD=YEAR: 1992
EXTT0=
EXTT1=
EXTT2=
EXTT3=
EXTT4=
EXTT5=
EXTT6=
EXTT7=
EXTT8=
EXTT9=
EXTT10=
EXTT11=
PLAYORDER=
